<mxfile host="app.diagrams.net" agent="Mozilla/5.0 (Windows NT 10.0; Win64; x64) AppleWebKit/537.36 (KHTML, like Gecko) Chrome/141.0.0.0 Safari/537.36" version="28.2.7">
  <diagram name="Page-1" id="boC7VEYkJPCXMQxGKBAJ">
    <mxGraphModel dx="1042" dy="527" grid="1" gridSize="10" guides="1" tooltips="1" connect="1" arrows="1" fold="1" page="1" pageScale="1" pageWidth="850" pageHeight="1100" math="0" shadow="0">
      <root>
        <mxCell id="0" />
        <mxCell id="1" parent="0" />
        <mxCell id="H7XItF_S5B3IdCHYuDYc-41" value="Database Server" style="verticalAlign=top;align=left;spacingTop=8;spacingLeft=2;spacingRight=12;shape=cube;size=10;direction=south;fontStyle=4;html=1;whiteSpace=wrap;" vertex="1" parent="1">
          <mxGeometry x="920" y="520" width="180" height="120" as="geometry" />
        </mxCell>
        <mxCell id="H7XItF_S5B3IdCHYuDYc-42" value="Web Server&lt;div&gt;&lt;br&gt;&lt;/div&gt;" style="verticalAlign=top;align=left;spacingTop=8;spacingLeft=2;spacingRight=12;shape=cube;size=10;direction=south;fontStyle=4;html=1;whiteSpace=wrap;" vertex="1" parent="1">
          <mxGeometry x="400" y="210" width="340" height="300" as="geometry" />
        </mxCell>
        <mxCell id="H7XItF_S5B3IdCHYuDYc-43" value="Laptop" style="verticalAlign=top;align=left;spacingTop=8;spacingLeft=2;spacingRight=12;shape=cube;size=10;direction=south;fontStyle=4;html=1;whiteSpace=wrap;" vertex="1" parent="1">
          <mxGeometry x="930" y="200" width="180" height="120" as="geometry" />
        </mxCell>
        <mxCell id="H7XItF_S5B3IdCHYuDYc-44" value="User Interface" style="shape=module;align=left;spacingLeft=20;align=center;verticalAlign=top;whiteSpace=wrap;html=1;" vertex="1" parent="1">
          <mxGeometry x="430" y="290" width="100" height="50" as="geometry" />
        </mxCell>
        <mxCell id="H7XItF_S5B3IdCHYuDYc-45" value="Database Interface" style="shape=module;align=left;spacingLeft=20;align=center;verticalAlign=top;whiteSpace=wrap;html=1;" vertex="1" parent="1">
          <mxGeometry x="440" y="400" width="100" height="50" as="geometry" />
        </mxCell>
        <mxCell id="H7XItF_S5B3IdCHYuDYc-46" value="Log file&amp;nbsp;" style="shape=module;align=left;spacingLeft=20;align=center;verticalAlign=top;whiteSpace=wrap;html=1;" vertex="1" parent="1">
          <mxGeometry x="590" y="335" width="100" height="50" as="geometry" />
        </mxCell>
        <mxCell id="H7XItF_S5B3IdCHYuDYc-47" value="Web browser" style="shape=module;align=left;spacingLeft=20;align=center;verticalAlign=top;whiteSpace=wrap;html=1;" vertex="1" parent="1">
          <mxGeometry x="970" y="250" width="100" height="50" as="geometry" />
        </mxCell>
        <mxCell id="H7XItF_S5B3IdCHYuDYc-48" value="MySql" style="shape=module;align=left;spacingLeft=20;align=center;verticalAlign=top;whiteSpace=wrap;html=1;" vertex="1" parent="1">
          <mxGeometry x="950" y="570" width="100" height="50" as="geometry" />
        </mxCell>
        <mxCell id="H7XItF_S5B3IdCHYuDYc-49" value="HTTP/HTTPS connection" style="text;html=1;whiteSpace=wrap;strokeColor=none;fillColor=none;align=center;verticalAlign=middle;rounded=0;" vertex="1" parent="1">
          <mxGeometry x="930" y="400" width="60" height="30" as="geometry" />
        </mxCell>
        <mxCell id="H7XItF_S5B3IdCHYuDYc-50" value="" style="endArrow=none;html=1;rounded=0;exitX=1;exitY=0.25;exitDx=0;exitDy=0;" edge="1" parent="1" source="H7XItF_S5B3IdCHYuDYc-49">
          <mxGeometry width="50" height="50" relative="1" as="geometry">
            <mxPoint x="945" y="370" as="sourcePoint" />
            <mxPoint x="995" y="320" as="targetPoint" />
          </mxGeometry>
        </mxCell>
        <mxCell id="H7XItF_S5B3IdCHYuDYc-51" value="" style="endArrow=none;html=1;rounded=0;exitX=0.706;exitY=-0.012;exitDx=0;exitDy=0;exitPerimeter=0;" edge="1" parent="1" source="H7XItF_S5B3IdCHYuDYc-42">
          <mxGeometry width="50" height="50" relative="1" as="geometry">
            <mxPoint x="750" y="420" as="sourcePoint" />
            <mxPoint x="920" y="420" as="targetPoint" />
          </mxGeometry>
        </mxCell>
        <mxCell id="H7XItF_S5B3IdCHYuDYc-52" value="TCP/IP or Local Socket" style="text;html=1;whiteSpace=wrap;strokeColor=none;fillColor=none;align=center;verticalAlign=middle;rounded=0;" vertex="1" parent="1">
          <mxGeometry x="620" y="590" width="130" height="30" as="geometry" />
        </mxCell>
        <mxCell id="H7XItF_S5B3IdCHYuDYc-53" value="" style="endArrow=none;html=1;rounded=0;" edge="1" parent="1" source="H7XItF_S5B3IdCHYuDYc-52">
          <mxGeometry width="50" height="50" relative="1" as="geometry">
            <mxPoint x="630" y="560" as="sourcePoint" />
            <mxPoint x="680" y="510" as="targetPoint" />
          </mxGeometry>
        </mxCell>
        <mxCell id="H7XItF_S5B3IdCHYuDYc-54" value="" style="endArrow=none;html=1;rounded=0;entryX=0.735;entryY=0.991;entryDx=0;entryDy=0;entryPerimeter=0;" edge="1" parent="1" target="H7XItF_S5B3IdCHYuDYc-41">
          <mxGeometry width="50" height="50" relative="1" as="geometry">
            <mxPoint x="760" y="605" as="sourcePoint" />
            <mxPoint x="810" y="555" as="targetPoint" />
          </mxGeometry>
        </mxCell>
      </root>
    </mxGraphModel>
  </diagram>
</mxfile>
